<svg width="72" height="24" viewBox="0 0 72 24" fill="none" xmlns="http://www.w3.org/2000/svg">
<mask id="path-1-inside-1_11014_4992" fill="white">
<path d="M0 0H72V24H0V0Z"/>
</mask>
<path d="M72 24V23H0V24V25H72V24Z" fill="white" mask="url(#path-1-inside-1_11014_4992)"/>
<path d="M5.96156 14.0625C5.96156 13.8281 5.93552 13.6198 5.88344 13.4375C5.83656 13.25 5.74542 13.0807 5.61 12.9297C5.47458 12.7786 5.28188 12.6302 5.03188 12.4844C4.78708 12.3385 4.46938 12.1901 4.07875 12.0391C3.63083 11.8672 3.21156 11.6797 2.82094 11.4766C2.43552 11.2682 2.09438 11.0339 1.7975 10.7734C1.50583 10.5078 1.27667 10.1979 1.11 9.84375C0.943334 9.48958 0.860001 9.07812 0.860001 8.60938C0.860001 8.14583 0.94073 7.72396 1.10219 7.34375C1.26885 6.95833 1.50323 6.6276 1.80531 6.35156C2.1126 6.07031 2.47719 5.85417 2.89906 5.70312C3.32094 5.54688 3.78708 5.46875 4.2975 5.46875C5.03188 5.46875 5.65948 5.625 6.18031 5.9375C6.70635 6.25 7.1074 6.66927 7.38344 7.19531C7.66469 7.72135 7.80531 8.30469 7.80531 8.94531H5.91469C5.91469 8.57552 5.8574 8.2474 5.74281 7.96094C5.62823 7.67448 5.45115 7.45052 5.21156 7.28906C4.97198 7.1276 4.66208 7.04688 4.28188 7.04688C3.93292 7.04688 3.64385 7.11458 3.41469 7.25C3.19073 7.38542 3.02406 7.57031 2.91469 7.80469C2.81052 8.03906 2.75844 8.30729 2.75844 8.60938C2.75844 8.81771 2.80271 9.00781 2.89125 9.17969C2.97979 9.34635 3.1074 9.5 3.27406 9.64062C3.44073 9.78125 3.64385 9.91406 3.88344 10.0391C4.12302 10.1641 4.39906 10.2839 4.71156 10.3984C5.24281 10.5911 5.70635 10.8047 6.10219 11.0391C6.49802 11.2734 6.82354 11.5365 7.07875 11.8281C7.33917 12.1146 7.53188 12.4401 7.65688 12.8047C7.78708 13.1693 7.85219 13.5833 7.85219 14.0469C7.85219 14.5156 7.77146 14.9427 7.61 15.3281C7.45375 15.7083 7.22458 16.0339 6.9225 16.3047C6.62042 16.5755 6.25583 16.7865 5.82875 16.9375C5.40167 17.0833 4.9225 17.1562 4.39125 17.1562C3.90167 17.1562 3.43031 17.0833 2.97719 16.9375C2.52927 16.7917 2.12823 16.5703 1.77406 16.2734C1.4199 15.9714 1.13865 15.5938 0.930313 15.1406C0.727188 14.6875 0.625626 14.1562 0.625626 13.5469H2.52406C2.52406 13.9115 2.56833 14.224 2.65688 14.4844C2.74542 14.7396 2.87302 14.9505 3.03969 15.1172C3.21156 15.2786 3.41208 15.3984 3.64125 15.4766C3.87563 15.5495 4.13604 15.5859 4.4225 15.5859C4.77667 15.5859 5.06573 15.5234 5.28969 15.3984C5.51885 15.2682 5.68813 15.0885 5.7975 14.8594C5.90688 14.6302 5.96156 14.3646 5.96156 14.0625ZM11.3559 5V17H9.54344V5H11.3559ZM11.0356 12.4688H10.4575C10.4523 11.8802 10.5148 11.3385 10.645 10.8438C10.7752 10.349 10.9627 9.91667 11.2075 9.54688C11.4523 9.17708 11.7466 8.89323 12.0903 8.69531C12.4393 8.49219 12.8247 8.39062 13.2466 8.39062C13.5955 8.39062 13.9106 8.45052 14.1919 8.57031C14.4783 8.6849 14.7231 8.86719 14.9263 9.11719C15.1346 9.36719 15.2934 9.69531 15.4028 10.1016C15.5122 10.5026 15.5669 10.9922 15.5669 11.5703V17H13.7466V11.5547C13.7466 11.1536 13.7023 10.8359 13.6138 10.6016C13.5304 10.3672 13.4054 10.1979 13.2388 10.0938C13.0721 9.98958 12.8611 9.9375 12.6059 9.9375C12.3559 9.9375 12.132 10.0052 11.9341 10.1406C11.7414 10.2708 11.5773 10.4531 11.4419 10.6875C11.3065 10.9167 11.2049 11.1849 11.1372 11.4922C11.0695 11.7943 11.0356 12.1198 11.0356 12.4688ZM17.2738 13.1172V12.4375C17.2738 11.7812 17.3545 11.2005 17.5159 10.6953C17.6774 10.1901 17.9066 9.76823 18.2034 9.42969C18.5055 9.08594 18.8597 8.82812 19.2659 8.65625C19.6722 8.47917 20.1201 8.39062 20.6097 8.39062C21.1097 8.39062 21.5628 8.47917 21.9691 8.65625C22.3805 8.82812 22.7347 9.08594 23.0316 9.42969C23.3336 9.76823 23.5654 10.1901 23.7269 10.6953C23.8883 11.2005 23.9691 11.7812 23.9691 12.4375V13.1172C23.9691 13.7734 23.8883 14.3542 23.7269 14.8594C23.5654 15.3646 23.3336 15.7891 23.0316 16.1328C22.7347 16.4714 22.3831 16.7266 21.9769 16.8984C21.5706 17.0703 21.1201 17.1562 20.6253 17.1562C20.1357 17.1562 19.6852 17.0703 19.2738 16.8984C18.8675 16.7266 18.5133 16.4714 18.2113 16.1328C17.9092 15.7891 17.6774 15.3646 17.5159 14.8594C17.3545 14.3542 17.2738 13.7734 17.2738 13.1172ZM19.0941 12.4375V13.1172C19.0941 13.5391 19.1305 13.9089 19.2034 14.2266C19.2764 14.5391 19.3805 14.7995 19.5159 15.0078C19.6514 15.2161 19.8128 15.3724 20.0003 15.4766C20.1878 15.5807 20.3961 15.6328 20.6253 15.6328C20.8805 15.6328 21.1019 15.5807 21.2894 15.4766C21.4821 15.3724 21.6409 15.2161 21.7659 15.0078C21.8961 14.7995 21.9925 14.5391 22.055 14.2266C22.1175 13.9089 22.1488 13.5391 22.1488 13.1172V12.4375C22.1488 12.0208 22.1123 11.6562 22.0394 11.3438C21.9665 11.026 21.8623 10.763 21.7269 10.5547C21.5915 10.3411 21.4274 10.1823 21.2347 10.0781C21.0472 9.97396 20.8389 9.92188 20.6097 9.92188C20.3857 9.92188 20.18 9.97396 19.9925 10.0781C19.8102 10.1823 19.6514 10.3411 19.5159 10.5547C19.3805 10.763 19.2764 11.026 19.2034 11.3438C19.1305 11.6562 19.0941 12.0208 19.0941 12.4375ZM27.5197 10.1719V20.25H25.7072V8.54688H27.3713L27.5197 10.1719ZM32.0666 12.4375V13.1094C32.0666 13.7708 32.0067 14.3542 31.8869 14.8594C31.7671 15.3646 31.59 15.7891 31.3556 16.1328C31.1265 16.4714 30.8426 16.7266 30.5041 16.8984C30.1655 17.0703 29.7697 17.1562 29.3166 17.1562C28.8895 17.1562 28.5171 17.0625 28.1994 16.875C27.8869 16.6875 27.6239 16.4245 27.4103 16.0859C27.1968 15.7474 27.0249 15.3464 26.8947 14.8828C26.7697 14.4141 26.6785 13.9036 26.6213 13.3516V12.3203C26.6785 11.737 26.7671 11.2057 26.8869 10.7266C27.0119 10.2422 27.1811 9.82552 27.3947 9.47656C27.6134 9.1276 27.8791 8.85938 28.1916 8.67188C28.5041 8.48438 28.8765 8.39062 29.3088 8.39062C29.7619 8.39062 30.1603 8.47135 30.5041 8.63281C30.8478 8.79427 31.1343 9.04167 31.3634 9.375C31.5978 9.70833 31.7723 10.1302 31.8869 10.6406C32.0067 11.1458 32.0666 11.7448 32.0666 12.4375ZM30.2463 13.1094V12.4375C30.2463 12.0052 30.2176 11.6328 30.1603 11.3203C30.1082 11.0026 30.0197 10.7422 29.8947 10.5391C29.7749 10.3359 29.6213 10.1849 29.4338 10.0859C29.2515 9.98698 29.0249 9.9375 28.7541 9.9375C28.5145 9.9375 28.3035 9.98698 28.1213 10.0859C27.939 10.1849 27.7853 10.3229 27.6603 10.5C27.5353 10.6719 27.4364 10.8776 27.3634 11.1172C27.2905 11.3516 27.2436 11.6068 27.2228 11.8828V13.7969C27.2697 14.1302 27.3478 14.4375 27.4572 14.7188C27.5666 14.9948 27.7254 15.2161 27.9338 15.3828C28.1473 15.5495 28.4259 15.6328 28.7697 15.6328C29.0353 15.6328 29.2619 15.5807 29.4494 15.4766C29.6369 15.3724 29.7879 15.2161 29.9025 15.0078C30.0223 14.7995 30.1082 14.5391 30.1603 14.2266C30.2176 13.9089 30.2463 13.5365 30.2463 13.1094ZM38.41 5.625H40.1366L42.7537 14.0859L45.3631 5.625H46.9647L43.4647 17H42.035L38.41 5.625ZM37.7616 5.625H39.3553L39.6131 12.8672V17H37.7616V5.625ZM46.1366 5.625H47.7381V17H45.8866V12.8672L46.1366 5.625ZM53.1169 17.1562C52.57 17.1562 52.083 17.0755 51.6559 16.9141C51.2289 16.7474 50.8669 16.5026 50.57 16.1797C50.2731 15.8516 50.0466 15.4505 49.8903 14.9766C49.7341 14.4974 49.6559 13.9427 49.6559 13.3125V12.5C49.6559 11.7865 49.7367 11.1719 49.8981 10.6562C50.0648 10.1354 50.294 9.70833 50.5856 9.375C50.8773 9.04167 51.221 8.79427 51.6169 8.63281C52.0179 8.47135 52.4528 8.39062 52.9216 8.39062C53.4528 8.39062 53.9137 8.47656 54.3044 8.64844C54.695 8.82031 55.0153 9.07812 55.2653 9.42188C55.5205 9.76562 55.708 10.1901 55.8278 10.6953C55.9528 11.2005 56.0153 11.7812 56.0153 12.4375V13.3516H50.5309V11.9766H54.2184V11.7812C54.208 11.3958 54.1611 11.0651 54.0778 10.7891C53.9945 10.5078 53.8591 10.2943 53.6716 10.1484C53.4893 9.9974 53.2367 9.92188 52.9137 9.92188C52.6794 9.92188 52.471 9.96615 52.2887 10.0547C52.1065 10.1432 51.9554 10.2865 51.8356 10.4844C51.721 10.6823 51.6325 10.9479 51.57 11.2812C51.5075 11.6094 51.4762 12.0156 51.4762 12.5V13.3125C51.4762 13.7344 51.5127 14.0911 51.5856 14.3828C51.6637 14.6745 51.7783 14.9141 51.9294 15.1016C52.0804 15.2839 52.2627 15.4193 52.4762 15.5078C52.695 15.5911 52.9476 15.6328 53.2341 15.6328C53.6559 15.6328 54.0179 15.5547 54.32 15.3984C54.6273 15.237 54.8929 15.0286 55.1169 14.7734L55.9216 15.8906C55.7705 16.0938 55.5674 16.2943 55.3122 16.4922C55.057 16.6849 54.7471 16.8438 54.3825 16.9688C54.0231 17.0938 53.6012 17.1562 53.1169 17.1562ZM59.4331 10.3516V17H57.6128V8.54688H59.3237L59.4331 10.3516ZM59.105 12.4688H58.5269C58.5217 11.8594 58.5868 11.3047 58.7222 10.8047C58.8576 10.3047 59.0503 9.875 59.3003 9.51562C59.5503 9.15625 59.8498 8.88021 60.1987 8.6875C60.5529 8.48958 60.9461 8.39062 61.3784 8.39062C61.717 8.39062 62.0243 8.44792 62.3003 8.5625C62.5816 8.67188 62.8211 8.85156 63.0191 9.10156C63.217 9.35156 63.368 9.67708 63.4722 10.0781C63.5816 10.4792 63.6362 10.9688 63.6362 11.5469V17H61.8159V11.5312C61.8159 11.1354 61.7717 10.8229 61.6831 10.5938C61.5998 10.3594 61.4748 10.1927 61.3081 10.0938C61.1415 9.98958 60.9305 9.9375 60.6753 9.9375C60.4409 9.9375 60.2248 10.0052 60.0269 10.1406C59.8342 10.2708 59.6675 10.4531 59.5269 10.6875C59.3915 10.9167 59.2873 11.1849 59.2144 11.4922C59.1415 11.7943 59.105 12.1198 59.105 12.4688ZM69.5384 14.7734C69.5384 14.5964 69.4864 14.4401 69.3822 14.3047C69.2832 14.1641 69.1218 14.026 68.8978 13.8906C68.6739 13.7552 68.3744 13.6094 67.9994 13.4531C67.6087 13.2917 67.2624 13.1302 66.9603 12.9688C66.6582 12.8073 66.403 12.6302 66.1947 12.4375C65.9864 12.2396 65.8275 12.013 65.7181 11.7578C65.6087 11.5026 65.5541 11.2057 65.5541 10.8672C65.5541 10.5182 65.6192 10.1953 65.7494 9.89844C65.8796 9.60156 66.0671 9.34115 66.3119 9.11719C66.5567 8.88802 66.8509 8.71094 67.1947 8.58594C67.5384 8.45573 67.9265 8.39062 68.3587 8.39062C68.9681 8.39062 69.489 8.5026 69.9212 8.72656C70.3587 8.94531 70.6921 9.2526 70.9212 9.64844C71.1556 10.0391 71.2728 10.4896 71.2728 11H69.4525C69.4525 10.7865 69.4134 10.5938 69.3353 10.4219C69.2572 10.2448 69.1374 10.1042 68.9759 10C68.8145 9.89062 68.6087 9.83594 68.3587 9.83594C68.1296 9.83594 67.9369 9.88021 67.7806 9.96875C67.6296 10.0521 67.515 10.1667 67.4369 10.3125C67.364 10.4531 67.3275 10.612 67.3275 10.7891C67.3275 10.9193 67.3509 11.0339 67.3978 11.1328C67.4447 11.2318 67.5228 11.3281 67.6322 11.4219C67.7416 11.5104 67.8874 11.6016 68.0697 11.6953C68.2572 11.7891 68.4942 11.8958 68.7806 12.0156C69.3483 12.2344 69.8197 12.4609 70.1947 12.6953C70.5697 12.9297 70.8509 13.2031 71.0384 13.5156C71.2259 13.8281 71.3197 14.2161 71.3197 14.6797C71.3197 15.0547 71.2494 15.3932 71.1087 15.6953C70.9733 15.9974 70.7754 16.2578 70.515 16.4766C70.2598 16.6953 69.9499 16.8646 69.5853 16.9844C69.2259 17.099 68.8249 17.1562 68.3822 17.1562C67.7207 17.1562 67.1608 17.026 66.7025 16.7656C66.2494 16.5 65.9056 16.1589 65.6712 15.7422C65.4369 15.3255 65.3197 14.8854 65.3197 14.4219H67.0775C67.0931 14.7552 67.1634 15.0156 67.2884 15.2031C67.4186 15.3906 67.5827 15.5208 67.7806 15.5938C67.9785 15.6615 68.1843 15.6953 68.3978 15.6953C68.653 15.6953 68.864 15.6615 69.0306 15.5938C69.1973 15.5208 69.3223 15.4141 69.4056 15.2734C69.4942 15.1328 69.5384 14.9661 69.5384 14.7734Z" fill="white"/>
</svg>
