<svg width="129" height="48" viewBox="0 0 129 48" fill="none" xmlns="http://www.w3.org/2000/svg">
<rect x="0.5" y="0.5" width="128" height="47" rx="3.5" fill="white"/>
<rect x="0.5" y="0.5" width="128" height="47" rx="3.5" stroke="#292929"/>
<path d="M38.1822 26.0625C38.1822 25.8281 38.1561 25.6198 38.1041 25.4375C38.0572 25.25 37.966 25.0807 37.8306 24.9297C37.6952 24.7786 37.5025 24.6302 37.2525 24.4844C37.0077 24.3385 36.69 24.1901 36.2994 24.0391C35.8515 23.8672 35.4322 23.6797 35.0416 23.4766C34.6561 23.2682 34.315 23.0339 34.0181 22.7734C33.7265 22.5078 33.4973 22.1979 33.3306 21.8438C33.164 21.4896 33.0806 21.0781 33.0806 20.6094C33.0806 20.1458 33.1614 19.724 33.3228 19.3438C33.4895 18.9583 33.7239 18.6276 34.0259 18.3516C34.3332 18.0703 34.6978 17.8542 35.1197 17.7031C35.5416 17.5469 36.0077 17.4688 36.5181 17.4688C37.2525 17.4688 37.8801 17.625 38.4009 17.9375C38.927 18.25 39.328 18.6693 39.6041 19.1953C39.8853 19.7214 40.0259 20.3047 40.0259 20.9453H38.1353C38.1353 20.5755 38.078 20.2474 37.9634 19.9609C37.8489 19.6745 37.6718 19.4505 37.4322 19.2891C37.1926 19.1276 36.8827 19.0469 36.5025 19.0469C36.1535 19.0469 35.8645 19.1146 35.6353 19.25C35.4114 19.3854 35.2447 19.5703 35.1353 19.8047C35.0311 20.0391 34.9791 20.3073 34.9791 20.6094C34.9791 20.8177 35.0233 21.0078 35.1119 21.1797C35.2004 21.3464 35.328 21.5 35.4947 21.6406C35.6614 21.7812 35.8645 21.9141 36.1041 22.0391C36.3436 22.1641 36.6197 22.2839 36.9322 22.3984C37.4634 22.5911 37.927 22.8047 38.3228 23.0391C38.7186 23.2734 39.0442 23.5365 39.2994 23.8281C39.5598 24.1146 39.7525 24.4401 39.8775 24.8047C40.0077 25.1693 40.0728 25.5833 40.0728 26.0469C40.0728 26.5156 39.9921 26.9427 39.8306 27.3281C39.6744 27.7083 39.4452 28.0339 39.1431 28.3047C38.841 28.5755 38.4765 28.7865 38.0494 28.9375C37.6223 29.0833 37.1431 29.1562 36.6119 29.1562C36.1223 29.1562 35.6509 29.0833 35.1978 28.9375C34.7499 28.7917 34.3489 28.5703 33.9947 28.2734C33.6405 27.9714 33.3593 27.5938 33.1509 27.1406C32.9478 26.6875 32.8462 26.1562 32.8462 25.5469H34.7447C34.7447 25.9115 34.789 26.224 34.8775 26.4844C34.966 26.7396 35.0936 26.9505 35.2603 27.1172C35.4322 27.2786 35.6327 27.3984 35.8619 27.4766C36.0962 27.5495 36.3567 27.5859 36.6431 27.5859C36.9973 27.5859 37.2864 27.5234 37.5103 27.3984C37.7395 27.2682 37.9087 27.0885 38.0181 26.8594C38.1275 26.6302 38.1822 26.3646 38.1822 26.0625ZM43.5766 17V29H41.7641V17H43.5766ZM43.2562 24.4688H42.6781C42.6729 23.8802 42.7354 23.3385 42.8656 22.8438C42.9958 22.349 43.1833 21.9167 43.4281 21.5469C43.6729 21.1771 43.9672 20.8932 44.3109 20.6953C44.6599 20.4922 45.0453 20.3906 45.4672 20.3906C45.8161 20.3906 46.1312 20.4505 46.4125 20.5703C46.699 20.6849 46.9437 20.8672 47.1469 21.1172C47.3552 21.3672 47.5141 21.6953 47.6234 22.1016C47.7328 22.5026 47.7875 22.9922 47.7875 23.5703V29H45.9672V23.5547C45.9672 23.1536 45.9229 22.8359 45.8344 22.6016C45.751 22.3672 45.626 22.1979 45.4594 22.0938C45.2927 21.9896 45.0818 21.9375 44.8266 21.9375C44.5766 21.9375 44.3526 22.0052 44.1547 22.1406C43.962 22.2708 43.7979 22.4531 43.6625 22.6875C43.5271 22.9167 43.4255 23.1849 43.3578 23.4922C43.2901 23.7943 43.2562 24.1198 43.2562 24.4688ZM49.4944 25.1172V24.4375C49.4944 23.7812 49.5751 23.2005 49.7366 22.6953C49.898 22.1901 50.1272 21.7682 50.4241 21.4297C50.7261 21.0859 51.0803 20.8281 51.4866 20.6562C51.8928 20.4792 52.3407 20.3906 52.8303 20.3906C53.3303 20.3906 53.7834 20.4792 54.1897 20.6562C54.6011 20.8281 54.9553 21.0859 55.2522 21.4297C55.5543 21.7682 55.786 22.1901 55.9475 22.6953C56.109 23.2005 56.1897 23.7812 56.1897 24.4375V25.1172C56.1897 25.7734 56.109 26.3542 55.9475 26.8594C55.786 27.3646 55.5543 27.7891 55.2522 28.1328C54.9553 28.4714 54.6037 28.7266 54.1975 28.8984C53.7912 29.0703 53.3407 29.1562 52.8459 29.1562C52.3564 29.1562 51.9058 29.0703 51.4944 28.8984C51.0881 28.7266 50.734 28.4714 50.4319 28.1328C50.1298 27.7891 49.898 27.3646 49.7366 26.8594C49.5751 26.3542 49.4944 25.7734 49.4944 25.1172ZM51.3147 24.4375V25.1172C51.3147 25.5391 51.3511 25.9089 51.4241 26.2266C51.497 26.5391 51.6011 26.7995 51.7366 27.0078C51.872 27.2161 52.0334 27.3724 52.2209 27.4766C52.4084 27.5807 52.6168 27.6328 52.8459 27.6328C53.1011 27.6328 53.3225 27.5807 53.51 27.4766C53.7027 27.3724 53.8616 27.2161 53.9866 27.0078C54.1168 26.7995 54.2131 26.5391 54.2756 26.2266C54.3381 25.9089 54.3694 25.5391 54.3694 25.1172V24.4375C54.3694 24.0208 54.3329 23.6562 54.26 23.3438C54.1871 23.026 54.0829 22.763 53.9475 22.5547C53.8121 22.3411 53.648 22.1823 53.4553 22.0781C53.2678 21.974 53.0595 21.9219 52.8303 21.9219C52.6064 21.9219 52.4006 21.974 52.2131 22.0781C52.0308 22.1823 51.872 22.3411 51.7366 22.5547C51.6011 22.763 51.497 23.026 51.4241 23.3438C51.3511 23.6562 51.3147 24.0208 51.3147 24.4375ZM59.7403 22.1719V32.25H57.9278V20.5469H59.5919L59.7403 22.1719ZM64.2872 24.4375V25.1094C64.2872 25.7708 64.2273 26.3542 64.1075 26.8594C63.9877 27.3646 63.8106 27.7891 63.5762 28.1328C63.3471 28.4714 63.0632 28.7266 62.7247 28.8984C62.3861 29.0703 61.9903 29.1562 61.5372 29.1562C61.1101 29.1562 60.7377 29.0625 60.42 28.875C60.1075 28.6875 59.8445 28.4245 59.6309 28.0859C59.4174 27.7474 59.2455 27.3464 59.1153 26.8828C58.9903 26.4141 58.8992 25.9036 58.8419 25.3516V24.3203C58.8992 23.737 58.9877 23.2057 59.1075 22.7266C59.2325 22.2422 59.4018 21.8255 59.6153 21.4766C59.8341 21.1276 60.0997 20.8594 60.4122 20.6719C60.7247 20.4844 61.0971 20.3906 61.5294 20.3906C61.9825 20.3906 62.3809 20.4714 62.7247 20.6328C63.0684 20.7943 63.3549 21.0417 63.5841 21.375C63.8184 21.7083 63.9929 22.1302 64.1075 22.6406C64.2273 23.1458 64.2872 23.7448 64.2872 24.4375ZM62.4669 25.1094V24.4375C62.4669 24.0052 62.4382 23.6328 62.3809 23.3203C62.3289 23.0026 62.2403 22.7422 62.1153 22.5391C61.9955 22.3359 61.8419 22.1849 61.6544 22.0859C61.4721 21.987 61.2455 21.9375 60.9747 21.9375C60.7351 21.9375 60.5242 21.987 60.3419 22.0859C60.1596 22.1849 60.0059 22.3229 59.8809 22.5C59.7559 22.6719 59.657 22.8776 59.5841 23.1172C59.5111 23.3516 59.4643 23.6068 59.4434 23.8828V25.7969C59.4903 26.1302 59.5684 26.4375 59.6778 26.7188C59.7872 26.9948 59.946 27.2161 60.1544 27.3828C60.3679 27.5495 60.6466 27.6328 60.9903 27.6328C61.2559 27.6328 61.4825 27.5807 61.67 27.4766C61.8575 27.3724 62.0085 27.2161 62.1231 27.0078C62.2429 26.7995 62.3289 26.5391 62.3809 26.2266C62.4382 25.9089 62.4669 25.5365 62.4669 25.1094ZM70.6306 17.625H72.3572L74.9744 26.0859L77.5837 17.625H79.1853L75.6853 29H74.2556L70.6306 17.625ZM69.9822 17.625H71.5759L71.8337 24.8672V29H69.9822V17.625ZM78.3572 17.625H79.9587V29H78.1072V24.8672L78.3572 17.625ZM85.3375 29.1562C84.7906 29.1562 84.3036 29.0755 83.8766 28.9141C83.4495 28.7474 83.0875 28.5026 82.7906 28.1797C82.4937 27.8516 82.2672 27.4505 82.1109 26.9766C81.9547 26.4974 81.8766 25.9427 81.8766 25.3125V24.5C81.8766 23.7865 81.9573 23.1719 82.1187 22.6562C82.2854 22.1354 82.5146 21.7083 82.8062 21.375C83.0979 21.0417 83.4417 20.7943 83.8375 20.6328C84.2385 20.4714 84.6734 20.3906 85.1422 20.3906C85.6734 20.3906 86.1344 20.4766 86.525 20.6484C86.9156 20.8203 87.2359 21.0781 87.4859 21.4219C87.7411 21.7656 87.9286 22.1901 88.0484 22.6953C88.1734 23.2005 88.2359 23.7812 88.2359 24.4375V25.3516H82.7516V23.9766H86.4391V23.7812C86.4286 23.3958 86.3818 23.0651 86.2984 22.7891C86.2151 22.5078 86.0797 22.2943 85.8922 22.1484C85.7099 21.9974 85.4573 21.9219 85.1344 21.9219C84.9 21.9219 84.6917 21.9661 84.5094 22.0547C84.3271 22.1432 84.176 22.2865 84.0562 22.4844C83.9417 22.6823 83.8531 22.9479 83.7906 23.2812C83.7281 23.6094 83.6969 24.0156 83.6969 24.5V25.3125C83.6969 25.7344 83.7333 26.0911 83.8062 26.3828C83.8844 26.6745 83.999 26.9141 84.15 27.1016C84.301 27.2839 84.4833 27.4193 84.6969 27.5078C84.9156 27.5911 85.1682 27.6328 85.4547 27.6328C85.8766 27.6328 86.2385 27.5547 86.5406 27.3984C86.8479 27.237 87.1135 27.0286 87.3375 26.7734L88.1422 27.8906C87.9911 28.0938 87.788 28.2943 87.5328 28.4922C87.2776 28.6849 86.9677 28.8438 86.6031 28.9688C86.2437 29.0938 85.8219 29.1562 85.3375 29.1562ZM91.6537 22.3516V29H89.8334V20.5469H91.5444L91.6537 22.3516ZM91.3256 24.4688H90.7475C90.7423 23.8594 90.8074 23.3047 90.9428 22.8047C91.0782 22.3047 91.2709 21.875 91.5209 21.5156C91.7709 21.1562 92.0704 20.8802 92.4194 20.6875C92.7735 20.4896 93.1668 20.3906 93.5991 20.3906C93.9376 20.3906 94.2449 20.4479 94.5209 20.5625C94.8022 20.6719 95.0418 20.8516 95.2397 21.1016C95.4376 21.3516 95.5886 21.6771 95.6928 22.0781C95.8022 22.4792 95.8569 22.9688 95.8569 23.5469V29H94.0366V23.5312C94.0366 23.1354 93.9923 22.8229 93.9037 22.5938C93.8204 22.3594 93.6954 22.1927 93.5287 22.0938C93.3621 21.9896 93.1511 21.9375 92.8959 21.9375C92.6616 21.9375 92.4454 22.0052 92.2475 22.1406C92.0548 22.2708 91.8881 22.4531 91.7475 22.6875C91.6121 22.9167 91.5079 23.1849 91.435 23.4922C91.3621 23.7943 91.3256 24.1198 91.3256 24.4688Z" fill="#292929"/>
</svg>
