<svg width="179" height="40" viewBox="0 0 179 40" fill="none" xmlns="http://www.w3.org/2000/svg">
<rect x="0.5" y="0.5" width="178" height="39" rx="3.5" fill="white"/>
<rect x="0.5" y="0.5" width="178" height="39" rx="3.5" stroke="#292929"/>
<path d="M31.7361 19.8936V23.8174C31.613 23.9678 31.4262 24.1478 31.1755 24.3574C30.9294 24.5625 30.5967 24.7448 30.1775 24.9043C29.7627 25.0592 29.2387 25.1367 28.6052 25.1367C28.072 25.1367 27.5844 25.0501 27.1423 24.877C26.7048 24.7038 26.3288 24.4417 26.0144 24.0908C25.6999 23.7399 25.4584 23.3024 25.2898 22.7783C25.1211 22.2497 25.0368 21.6253 25.0368 20.9053V19.1348C25.0368 18.4238 25.112 17.804 25.2624 17.2754C25.4174 16.7467 25.643 16.307 25.9392 15.9561C26.2354 15.6006 26.5954 15.3385 27.0193 15.1699C27.4431 14.9967 27.9307 14.9102 28.4821 14.9102C29.1794 14.9102 29.7605 15.0332 30.2253 15.2793C30.6947 15.5208 31.0525 15.8809 31.2986 16.3594C31.5492 16.8333 31.695 17.4121 31.7361 18.0957H30.1159C30.0795 17.6764 29.9997 17.3369 29.8767 17.0771C29.7582 16.8128 29.5873 16.6169 29.364 16.4893C29.1407 16.3617 28.8536 16.2979 28.5027 16.2979C28.1836 16.2979 27.9102 16.3525 27.6823 16.4619C27.4545 16.5713 27.2676 16.7422 27.1218 16.9746C26.976 17.2025 26.8689 17.4941 26.8005 17.8496C26.7321 18.2051 26.698 18.6289 26.698 19.1211V20.9053C26.698 21.4066 26.7413 21.8372 26.8279 22.1973C26.9144 22.5573 27.0398 22.8535 27.2038 23.0859C27.3724 23.3138 27.5798 23.4824 27.8259 23.5918C28.072 23.6966 28.3523 23.749 28.6667 23.749C28.9766 23.749 29.2227 23.7171 29.405 23.6533C29.5873 23.5895 29.7286 23.5189 29.8288 23.4414C29.9336 23.3594 30.018 23.2956 30.0818 23.25V21.1992H28.4753V19.8936H31.7361ZM36.2921 25.1367C35.8136 25.1367 35.3874 25.0661 35.0137 24.9248C34.6401 24.779 34.3233 24.5648 34.0636 24.2822C33.8038 23.9951 33.6055 23.6442 33.4688 23.2295C33.3321 22.8102 33.2637 22.3249 33.2637 21.7734V21.0625C33.2637 20.4382 33.3344 19.9004 33.4757 19.4492C33.6215 18.9935 33.822 18.6198 34.0772 18.3281C34.3324 18.0365 34.6332 17.82 34.9796 17.6787C35.3305 17.5374 35.711 17.4668 36.1212 17.4668C36.586 17.4668 36.9893 17.542 37.3311 17.6924C37.6729 17.8428 37.9532 18.0684 38.172 18.3691C38.3953 18.6699 38.5593 19.0413 38.6641 19.4834C38.7735 19.9255 38.8282 20.4336 38.8282 21.0078V21.8076H34.0294V20.6045H37.2559V20.4336C37.2468 20.0964 37.2058 19.807 37.1329 19.5654C37.06 19.3193 36.9415 19.1325 36.7774 19.0049C36.6179 18.8727 36.3969 18.8066 36.1143 18.8066C35.9093 18.8066 35.727 18.8454 35.5675 18.9229C35.408 19.0003 35.2758 19.1257 35.171 19.2988C35.0707 19.472 34.9932 19.7044 34.9386 19.9961C34.8839 20.2832 34.8565 20.6387 34.8565 21.0625V21.7734C34.8565 22.1426 34.8884 22.4548 34.9522 22.71C35.0206 22.9652 35.1208 23.1748 35.253 23.3389C35.3852 23.4984 35.5447 23.6169 35.7315 23.6943C35.9229 23.7673 36.144 23.8037 36.3946 23.8037C36.7637 23.8037 37.0805 23.7354 37.3448 23.5986C37.6137 23.4574 37.8461 23.2751 38.0421 23.0518L38.7462 24.0293C38.614 24.207 38.4363 24.3825 38.213 24.5557C37.9897 24.7243 37.7185 24.8633 37.3995 24.9727C37.085 25.082 36.7159 25.1367 36.2921 25.1367ZM43.2338 17.6035V18.834H39.6039V17.6035H43.2338ZM40.5952 15.792H42.1811V22.9355C42.1811 23.1634 42.2062 23.3366 42.2563 23.4551C42.3064 23.5736 42.3771 23.6533 42.4682 23.6943C42.5593 23.7354 42.6664 23.7559 42.7895 23.7559C42.8806 23.7559 42.9695 23.749 43.0561 23.7354C43.1472 23.7171 43.2133 23.7012 43.2543 23.6875V24.9727C43.1358 25.0182 42.9991 25.057 42.8442 25.0889C42.6892 25.1208 42.5024 25.1367 42.2836 25.1367C41.9601 25.1367 41.6707 25.0706 41.4155 24.9385C41.1603 24.8018 40.9597 24.5807 40.8139 24.2754C40.6681 23.9655 40.5952 23.5553 40.5952 23.0449V15.792ZM49.1671 15.0469L50.9171 19.7637L52.6671 15.0469H54.4992L51.7511 21.3359V25H50.0763V21.3359L47.3283 15.0469H49.1671ZM54.9263 21.6025V21.0078C54.9263 20.4336 54.9969 19.9255 55.1382 19.4834C55.2795 19.0413 55.48 18.6722 55.7398 18.376C56.0041 18.0752 56.314 17.8496 56.6695 17.6992C57.0249 17.5443 57.4168 17.4668 57.8452 17.4668C58.2827 17.4668 58.6792 17.5443 59.0347 17.6992C59.3947 17.8496 59.7046 18.0752 59.9644 18.376C60.2287 18.6722 60.4315 19.0413 60.5728 19.4834C60.714 19.9255 60.7847 20.4336 60.7847 21.0078V21.6025C60.7847 22.1768 60.714 22.6849 60.5728 23.127C60.4315 23.569 60.2287 23.9404 59.9644 24.2412C59.7046 24.5374 59.397 24.7607 59.0415 24.9111C58.6861 25.0615 58.2918 25.1367 57.8589 25.1367C57.4305 25.1367 57.0363 25.0615 56.6763 24.9111C56.3208 24.7607 56.0109 24.5374 55.7466 24.2412C55.4823 23.9404 55.2795 23.569 55.1382 23.127C54.9969 22.6849 54.9263 22.1768 54.9263 21.6025ZM56.5191 21.0078V21.6025C56.5191 21.9717 56.551 22.2952 56.6148 22.5732C56.6786 22.8467 56.7697 23.0745 56.8882 23.2568C57.0067 23.4391 57.148 23.5758 57.312 23.667C57.4761 23.7581 57.6584 23.8037 57.8589 23.8037C58.0822 23.8037 58.2759 23.7581 58.44 23.667C58.6086 23.5758 58.7476 23.4391 58.857 23.2568C58.9709 23.0745 59.0552 22.8467 59.1099 22.5732C59.1646 22.2952 59.1919 21.9717 59.1919 21.6025V21.0078C59.1919 20.6432 59.16 20.3242 59.0962 20.0508C59.0324 19.7728 58.9413 19.5426 58.8228 19.3604C58.7043 19.1735 58.5607 19.0345 58.3921 18.9434C58.228 18.8522 58.0458 18.8066 57.8452 18.8066C57.6493 18.8066 57.4693 18.8522 57.3052 18.9434C57.1457 19.0345 57.0067 19.1735 56.8882 19.3604C56.7697 19.5426 56.6786 19.7728 56.6148 20.0508C56.551 20.3242 56.5191 20.6432 56.5191 21.0078ZM65.9491 23.2568V17.6035H67.5419V25H66.0448L65.9491 23.2568ZM66.1747 21.7119L66.6805 21.6982C66.6805 22.195 66.635 22.653 66.5438 23.0723C66.4527 23.4915 66.3114 23.8561 66.12 24.166C65.9331 24.4714 65.6893 24.7106 65.3886 24.8838C65.0923 25.0524 64.7346 25.1367 64.3153 25.1367C64.0145 25.1367 63.7388 25.0843 63.4882 24.9795C63.2375 24.8747 63.021 24.7129 62.8387 24.4941C62.6565 24.2754 62.5152 23.9906 62.4149 23.6396C62.3147 23.2887 62.2645 22.8695 62.2645 22.3818V17.6035H63.8573V22.3955C63.8573 22.6598 63.8801 22.8809 63.9257 23.0586C63.9712 23.2318 64.035 23.373 64.1171 23.4824C64.1991 23.5872 64.2902 23.6624 64.3905 23.708C64.4953 23.749 64.607 23.7695 64.7255 23.7695C65.0855 23.7695 65.3703 23.6807 65.58 23.5029C65.7942 23.3206 65.9468 23.0745 66.038 22.7646C66.1291 22.4548 66.1747 22.1038 66.1747 21.7119ZM70.8674 19.0322V25H69.2746V17.6035H70.7922L70.8674 19.0322ZM72.6516 17.5557L72.6448 19.1279C72.5536 19.1051 72.4556 19.0915 72.3508 19.0869C72.2506 19.0778 72.1503 19.0732 72.05 19.0732C71.8313 19.0732 71.6422 19.112 71.4827 19.1895C71.3231 19.2669 71.1887 19.3786 71.0793 19.5244C70.97 19.6702 70.8834 19.8457 70.8196 20.0508C70.7603 20.2559 70.7239 20.4883 70.7102 20.748L70.3684 20.7617C70.3684 20.2969 70.4049 19.8662 70.4778 19.4697C70.5507 19.0687 70.6601 18.7201 70.8059 18.4238C70.9563 18.123 71.1431 17.8883 71.3664 17.7197C71.5898 17.5511 71.8495 17.4668 72.1457 17.4668C72.2278 17.4668 72.3212 17.4759 72.426 17.4941C72.5308 17.5124 72.606 17.5329 72.6516 17.5557ZM77.3102 23.0518C77.3102 22.8968 77.2646 22.7601 77.1734 22.6416C77.0868 22.5186 76.9456 22.3978 76.7496 22.2793C76.5536 22.1608 76.2916 22.0332 75.9635 21.8965C75.6217 21.7552 75.3186 21.6139 75.0543 21.4727C74.79 21.3314 74.5667 21.1764 74.3844 21.0078C74.2021 20.8346 74.0631 20.6364 73.9674 20.4131C73.8717 20.1898 73.8238 19.93 73.8238 19.6338C73.8238 19.3285 73.8808 19.0459 73.9947 18.7861C74.1087 18.5264 74.2727 18.2985 74.4869 18.1025C74.7011 17.902 74.9586 17.7471 75.2594 17.6377C75.5602 17.5238 75.8997 17.4668 76.2779 17.4668C76.8111 17.4668 77.2669 17.5648 77.6451 17.7607C78.0279 17.9521 78.3196 18.221 78.5201 18.5674C78.7252 18.9092 78.8277 19.3034 78.8277 19.75H77.235C77.235 19.5632 77.2008 19.3945 77.1324 19.2441C77.0641 19.0892 76.9592 18.9661 76.818 18.875C76.6767 18.7793 76.4967 18.7314 76.2779 18.7314C76.0774 18.7314 75.9088 18.7702 75.7721 18.8477C75.6399 18.9206 75.5396 19.0208 75.4713 19.1484C75.4075 19.2715 75.3756 19.4105 75.3756 19.5654C75.3756 19.6794 75.3961 19.7796 75.4371 19.8662C75.4781 19.9528 75.5465 20.0371 75.6422 20.1191C75.7379 20.1966 75.8655 20.2764 76.025 20.3584C76.1891 20.4404 76.3964 20.5339 76.6471 20.6387C77.1438 20.8301 77.5562 21.0283 77.8844 21.2334C78.2125 21.4385 78.4586 21.6777 78.6227 21.9512C78.7867 22.2246 78.8687 22.5641 78.8687 22.9697C78.8687 23.2979 78.8072 23.5941 78.6842 23.8584C78.5657 24.1227 78.3925 24.3506 78.1646 24.542C77.9413 24.7334 77.6702 24.8815 77.3512 24.9863C77.0367 25.0866 76.6858 25.1367 76.2984 25.1367C75.7197 25.1367 75.2298 25.0228 74.8287 24.7949C74.4322 24.5625 74.1314 24.264 73.9264 23.8994C73.7213 23.5348 73.6187 23.1497 73.6187 22.7441H75.1568C75.1705 23.0358 75.232 23.2637 75.3414 23.4277C75.4553 23.5918 75.5989 23.7057 75.7721 23.7695C75.9452 23.8288 76.1253 23.8584 76.3121 23.8584C76.5354 23.8584 76.72 23.8288 76.8658 23.7695C77.0117 23.7057 77.121 23.6123 77.1939 23.4893C77.2714 23.3662 77.3102 23.2204 77.3102 23.0518ZM85.554 15.0469V25H83.8929V15.0469H85.554ZM88.7806 19.3877V20.7822H85.1712V19.3877H88.7806ZM89.2454 15.0469V16.4414H85.1712V15.0469H89.2454ZM90.2194 21.6025V21.0078C90.2194 20.4336 90.2901 19.9255 90.4313 19.4834C90.5726 19.0413 90.7731 18.6722 91.0329 18.376C91.2972 18.0752 91.6071 17.8496 91.9626 17.6992C92.318 17.5443 92.71 17.4668 93.1384 17.4668C93.5759 17.4668 93.9723 17.5443 94.3278 17.6992C94.6878 17.8496 94.9977 18.0752 95.2575 18.376C95.5218 18.6722 95.7246 19.0413 95.8659 19.4834C96.0072 19.9255 96.0778 20.4336 96.0778 21.0078V21.6025C96.0778 22.1768 96.0072 22.6849 95.8659 23.127C95.7246 23.569 95.5218 23.9404 95.2575 24.2412C94.9977 24.5374 94.6901 24.7607 94.3346 24.9111C93.9792 25.0615 93.585 25.1367 93.152 25.1367C92.7236 25.1367 92.3294 25.0615 91.9694 24.9111C91.6139 24.7607 91.304 24.5374 91.0397 24.2412C90.7754 23.9404 90.5726 23.569 90.4313 23.127C90.2901 22.6849 90.2194 22.1768 90.2194 21.6025ZM91.8122 21.0078V21.6025C91.8122 21.9717 91.8441 22.2952 91.9079 22.5732C91.9717 22.8467 92.0628 23.0745 92.1813 23.2568C92.2998 23.4391 92.4411 23.5758 92.6052 23.667C92.7692 23.7581 92.9515 23.8037 93.152 23.8037C93.3753 23.8037 93.569 23.7581 93.7331 23.667C93.9017 23.5758 94.0407 23.4391 94.1501 23.2568C94.264 23.0745 94.3483 22.8467 94.403 22.5732C94.4577 22.2952 94.485 21.9717 94.485 21.6025V21.0078C94.485 20.6432 94.4531 20.3242 94.3893 20.0508C94.3255 19.7728 94.2344 19.5426 94.1159 19.3604C93.9974 19.1735 93.8539 19.0345 93.6852 18.9434C93.5212 18.8522 93.3389 18.8066 93.1384 18.8066C92.9424 18.8066 92.7624 18.8522 92.5983 18.9434C92.4388 19.0345 92.2998 19.1735 92.1813 19.3604C92.0628 19.5426 91.9717 19.7728 91.9079 20.0508C91.8441 20.3242 91.8122 20.6432 91.8122 21.0078ZM99.1846 19.0322V25H97.5918V17.6035H99.1094L99.1846 19.0322ZM100.969 17.5557L100.962 19.1279C100.871 19.1051 100.773 19.0915 100.668 19.0869C100.568 19.0778 100.467 19.0732 100.367 19.0732C100.148 19.0732 99.9593 19.112 99.7998 19.1895C99.6403 19.2669 99.5059 19.3786 99.3965 19.5244C99.2871 19.6702 99.2006 19.8457 99.1368 20.0508C99.0775 20.2559 99.0411 20.4883 99.0274 20.748L98.6856 20.7617C98.6856 20.2969 98.722 19.8662 98.795 19.4697C98.8679 19.0687 98.9773 18.7201 99.1231 18.4238C99.2735 18.123 99.4603 17.8883 99.6836 17.7197C99.9069 17.5511 100.167 17.4668 100.463 17.4668C100.545 17.4668 100.638 17.4759 100.743 17.4941C100.848 17.5124 100.923 17.5329 100.969 17.5557ZM112.453 19.21V20.9053C112.453 21.6071 112.371 22.2223 112.207 22.751C112.047 23.2796 111.815 23.7217 111.51 24.0771C111.209 24.4281 110.844 24.6924 110.416 24.8701C109.992 25.0479 109.518 25.1367 108.994 25.1367C108.474 25.1367 108 25.0479 107.572 24.8701C107.148 24.6924 106.781 24.4281 106.471 24.0771C106.166 23.7217 105.929 23.2796 105.761 22.751C105.596 22.2223 105.514 21.6071 105.514 20.9053V19.21C105.514 18.499 105.596 17.877 105.761 17.3438C105.925 16.806 106.159 16.3571 106.465 15.9971C106.775 15.637 107.141 15.3659 107.565 15.1836C107.994 15.0013 108.465 14.9102 108.98 14.9102C109.504 14.9102 109.978 15.0013 110.402 15.1836C110.83 15.3659 111.197 15.637 111.503 15.9971C111.808 16.3571 112.043 16.806 112.207 17.3438C112.371 17.877 112.453 18.499 112.453 19.21ZM110.805 20.9053V19.1963C110.805 18.6904 110.764 18.2575 110.682 17.8975C110.605 17.5329 110.489 17.2367 110.334 17.0088C110.179 16.7764 109.987 16.6055 109.76 16.4961C109.536 16.3822 109.276 16.3252 108.98 16.3252C108.693 16.3252 108.436 16.3822 108.208 16.4961C107.984 16.6055 107.793 16.7764 107.634 17.0088C107.479 17.2367 107.36 17.5329 107.278 17.8975C107.201 18.2575 107.162 18.6904 107.162 19.1963V20.9053C107.162 21.402 107.203 21.8304 107.285 22.1904C107.367 22.5459 107.485 22.8376 107.64 23.0654C107.8 23.2887 107.994 23.4551 108.221 23.5645C108.449 23.6738 108.707 23.7285 108.994 23.7285C109.286 23.7285 109.545 23.6738 109.773 23.5645C110.001 23.4551 110.19 23.2887 110.341 23.0654C110.496 22.8376 110.612 22.5459 110.689 22.1904C110.767 21.8304 110.805 21.402 110.805 20.9053ZM115.717 19.1826V25H114.124V17.6035H115.621L115.717 19.1826ZM115.43 21.0352H114.924C114.919 20.502 114.976 20.0166 115.095 19.5791C115.213 19.1416 115.382 18.7656 115.601 18.4512C115.819 18.1367 116.081 17.8952 116.387 17.7266C116.697 17.5534 117.041 17.4668 117.419 17.4668C117.715 17.4668 117.984 17.5169 118.226 17.6172C118.472 17.7129 118.681 17.8701 118.855 18.0889C119.028 18.3076 119.16 18.5924 119.251 18.9434C119.347 19.2943 119.395 19.7227 119.395 20.2285V25H117.802V20.2148C117.802 19.8685 117.763 19.5951 117.686 19.3945C117.613 19.1895 117.503 19.0436 117.358 18.957C117.212 18.8659 117.027 18.8203 116.804 18.8203C116.599 18.8203 116.41 18.8796 116.236 18.998C116.068 19.112 115.922 19.2715 115.799 19.4766C115.68 19.6771 115.589 19.9118 115.526 20.1807C115.462 20.445 115.43 20.7298 115.43 21.0352ZM122.823 14.5V25H121.23V14.5H122.823ZM126.463 24.1865L128.049 17.6035H129.723L127.283 26.1211C127.228 26.3079 127.151 26.5085 127.051 26.7227C126.955 26.9368 126.83 27.1396 126.675 27.3311C126.524 27.527 126.335 27.6842 126.107 27.8027C125.884 27.9258 125.617 27.9873 125.307 27.9873C125.18 27.9873 125.057 27.9759 124.938 27.9531C124.82 27.9303 124.706 27.903 124.597 27.8711V26.5859C124.633 26.5905 124.674 26.5951 124.72 26.5996C124.765 26.6042 124.806 26.6064 124.843 26.6064C125.066 26.6064 125.25 26.5723 125.396 26.5039C125.542 26.4401 125.663 26.3353 125.759 26.1895C125.854 26.0482 125.939 25.859 126.012 25.6221L126.463 24.1865ZM125.759 17.6035L127.057 23.1064L127.338 24.8906L126.244 25.1709L124.043 17.6035H125.759ZM137.605 13.4473V15.5049H136.614V13.4473H137.605ZM137.468 24.6104V26.4492H136.477V24.6104H137.468ZM138.138 22.4023C138.138 22.1426 138.097 21.9147 138.015 21.7188C137.933 21.5228 137.801 21.3451 137.619 21.1855C137.436 21.0215 137.195 20.8711 136.894 20.7344C136.402 20.5293 135.971 20.2992 135.602 20.0439C135.233 19.7842 134.948 19.4629 134.748 19.0801C134.547 18.6973 134.447 18.221 134.447 17.6514C134.447 17.0908 134.556 16.6055 134.775 16.1953C134.994 15.7806 135.299 15.4616 135.691 15.2383C136.087 15.015 136.548 14.9033 137.072 14.9033C137.473 14.9033 137.835 14.974 138.159 15.1152C138.482 15.2565 138.758 15.4639 138.986 15.7373C139.218 16.0107 139.394 16.348 139.512 16.749C139.635 17.1455 139.697 17.6012 139.697 18.1162H138.111C138.111 17.8291 138.086 17.5739 138.036 17.3506C137.99 17.1227 137.922 16.929 137.831 16.7695C137.739 16.6055 137.628 16.4824 137.496 16.4004C137.364 16.3138 137.215 16.2705 137.051 16.2705C136.819 16.2705 136.628 16.3298 136.477 16.4482C136.331 16.5667 136.22 16.7285 136.142 16.9336C136.069 17.1387 136.033 17.3757 136.033 17.6445C136.033 17.8997 136.074 18.1253 136.156 18.3213C136.238 18.5127 136.372 18.6859 136.559 18.8408C136.746 18.9958 136.994 19.1507 137.304 19.3057C137.806 19.5199 138.236 19.7568 138.596 20.0166C138.961 20.2764 139.241 20.5954 139.437 20.9736C139.633 21.3473 139.731 21.819 139.731 22.3887C139.731 22.9811 139.615 23.4824 139.382 23.8926C139.15 24.3027 138.826 24.6149 138.412 24.8291C137.997 25.0387 137.509 25.1436 136.949 25.1436C136.602 25.1436 136.263 25.0911 135.93 24.9863C135.598 24.877 135.292 24.6992 135.014 24.4531C134.741 24.2025 134.522 23.8743 134.358 23.4688C134.198 23.0632 134.119 22.5596 134.119 21.958H135.711C135.711 22.3135 135.746 22.6097 135.814 22.8467C135.887 23.0791 135.983 23.2637 136.101 23.4004C136.22 23.5371 136.352 23.6351 136.498 23.6943C136.643 23.749 136.794 23.7764 136.949 23.7764C137.209 23.7764 137.427 23.7194 137.605 23.6055C137.783 23.487 137.915 23.3252 138.002 23.1201C138.093 22.915 138.138 22.6758 138.138 22.4023ZM145.237 15.0127V25H143.644V17.0088L141.662 17.8291V16.4414L145.046 15.0127H145.237ZM153.991 19.1895V20.8164C153.991 21.5957 153.922 22.2611 153.785 22.8125C153.653 23.3594 153.464 23.8037 153.218 24.1455C152.977 24.4873 152.685 24.738 152.343 24.8975C152.006 25.057 151.63 25.1367 151.215 25.1367C150.887 25.1367 150.579 25.0866 150.292 24.9863C150.005 24.8861 149.745 24.7288 149.513 24.5146C149.285 24.3005 149.089 24.0247 148.925 23.6875C148.766 23.3457 148.64 22.9378 148.549 22.4639C148.463 21.9899 148.419 21.4408 148.419 20.8164V19.1895C148.419 18.4056 148.488 17.7448 148.624 17.207C148.761 16.6647 148.952 16.2249 149.199 15.8877C149.445 15.5459 149.736 15.2975 150.074 15.1426C150.415 14.9876 150.794 14.9102 151.208 14.9102C151.536 14.9102 151.844 14.9603 152.131 15.0605C152.418 15.1562 152.676 15.3089 152.904 15.5186C153.131 15.7282 153.327 16.0016 153.491 16.3389C153.656 16.6715 153.779 17.0749 153.861 17.5488C153.947 18.0182 153.991 18.5651 153.991 19.1895ZM152.405 21.0557V18.9365C152.405 18.5446 152.386 18.1982 152.35 17.8975C152.313 17.5967 152.263 17.3415 152.199 17.1318C152.136 16.9222 152.054 16.7536 151.953 16.626C151.858 16.4938 151.746 16.3981 151.618 16.3389C151.495 16.2751 151.359 16.2432 151.208 16.2432C151.021 16.2432 150.853 16.291 150.702 16.3867C150.557 16.4824 150.431 16.6374 150.326 16.8516C150.226 17.0612 150.149 17.3392 150.094 17.6855C150.039 18.0273 150.012 18.4443 150.012 18.9365V21.0557C150.012 21.4521 150.03 21.8008 150.067 22.1016C150.103 22.4023 150.156 22.6621 150.224 22.8809C150.292 23.0951 150.374 23.2705 150.47 23.4072C150.566 23.5394 150.675 23.6374 150.798 23.7012C150.926 23.765 151.065 23.7969 151.215 23.7969C151.407 23.7969 151.575 23.7467 151.721 23.6465C151.871 23.5462 151.997 23.389 152.097 23.1748C152.197 22.9561 152.272 22.6712 152.323 22.3203C152.377 21.9694 152.405 21.5479 152.405 21.0557Z" fill="#292929"/>
</svg>
