<svg width="30" height="20" viewBox="0 0 30 20" fill="none" xmlns="http://www.w3.org/2000/svg">
<g clip-path="url(#clip0_0_226)">
<path d="M29 0H1C0.447715 0 0 0.447715 0 1V19C0 19.5523 0.447715 20 1 20H29C29.5523 20 30 19.5523 30 19V1C30 0.447715 29.5523 0 29 0Z" fill="white"/>
<path d="M14.3858 6.74933V8.99498H15.7707C16.1007 8.99498 16.3735 8.88388 16.5891 8.66223C16.8107 8.44113 16.9218 8.17713 16.9218 7.87188C16.9218 7.57268 16.8107 7.31198 16.5891 7.08978C16.3735 6.86263 16.1007 6.74878 15.7707 6.74878H14.3858V6.74933ZM14.3858 9.78533V12.3901H13.5586V5.95898H15.7531C16.3102 5.95898 16.7832 6.14433 17.1732 6.51558C17.5692 6.88683 17.7672 7.33893 17.7672 7.87188C17.7672 8.41693 17.5692 8.87233 17.1732 9.23698C16.7898 9.60273 16.3157 9.78478 15.7525 9.78478H14.3858V9.78533ZM18.6032 11.0432C18.6032 11.2588 18.6945 11.4381 18.8776 11.5822C19.0602 11.7252 19.2747 11.7972 19.52 11.7972C19.8682 11.7972 20.1778 11.6685 20.4506 11.4117C20.724 11.1537 20.8598 10.8512 20.8598 10.5042C20.6019 10.3007 20.2422 10.1989 19.7807 10.1989C19.4452 10.1989 19.1647 10.2803 18.9403 10.442C18.7154 10.6037 18.6032 10.8034 18.6032 11.0432ZM19.6735 7.84493C20.2851 7.84493 20.7674 8.00828 21.1216 8.33443C21.4747 8.66113 21.6518 9.10883 21.6518 9.67753V12.3901H20.8604V11.7796H20.8246C20.4825 12.2823 20.0271 12.5342 19.4573 12.5342C18.9722 12.5342 18.5658 12.3901 18.2391 12.103C17.9124 11.8154 17.749 11.4562 17.749 11.025C17.749 10.5696 17.9212 10.2077 18.266 9.93823C18.6109 9.66873 19.0707 9.53398 19.6465 9.53398C20.1371 9.53398 20.5425 9.62363 20.8598 9.80348V9.61428C20.8598 9.32718 20.746 9.08298 20.5183 8.88278C20.2989 8.68536 20.0131 8.57793 19.718 8.58193C19.256 8.58193 18.8908 8.77608 18.6208 9.16603L17.8926 8.70733C18.2941 8.13258 18.8881 7.84493 19.6735 7.84493ZM26.1926 7.98903L23.4316 14.3305H22.5775L23.6027 12.1118L21.7866 7.98903H22.6858L23.9987 11.151H24.0163L25.2934 7.98848L26.1926 7.98903Z" fill="#3C4043"/>
<path d="M11.0432 9.22371C11.0432 8.96356 11.0212 8.71221 10.9794 8.47241H7.49023V9.89581H9.48893C9.40616 10.3554 9.13911 10.7611 8.74973 11.0189V11.9429H9.94268C10.6412 11.2994 11.0432 10.3479 11.0432 9.22371Z" fill="#4285F4"/>
<path d="M7.49007 12.8351C8.48887 12.8351 9.32927 12.5078 9.94252 11.9435L8.74957 11.019C8.41792 11.2423 7.99057 11.3726 7.49007 11.3726C6.52537 11.3726 5.70587 10.7225 5.41327 9.84692H4.18457V10.799C4.81317 12.0478 6.09195 12.8357 7.49007 12.8356" fill="#34A853"/>
<path d="M5.41312 9.84688C5.25877 9.38798 5.25877 8.89117 5.41312 8.43227V7.48022H4.18442C3.92467 7.99457 3.78957 8.56282 3.79004 9.13902C3.79004 9.73577 3.93307 10.2995 4.18442 10.7984L5.41312 9.84632V9.84688Z" fill="#FABB05"/>
<path d="M7.48952 6.90654C8.03512 6.90654 8.52352 7.09354 8.90852 7.46094V7.46149L9.96452 6.40659C9.32432 5.81039 8.48832 5.44409 7.49007 5.44409C6.0921 5.44392 4.81335 6.23159 4.18457 7.48019L5.41327 8.43224C5.70587 7.55664 6.52537 6.90654 7.49007 6.90654" fill="#E94235"/>
</g>
<defs>
<clipPath id="clip0_0_226">
<rect width="30" height="20" rx="2" fill="white"/>
</clipPath>
</defs>
</svg>
