<svg width="32" height="32" viewBox="0 0 32 32" fill="none" xmlns="http://www.w3.org/2000/svg">
<path d="M26.6663 15.2676C24.5931 15.1793 22.5907 14.4589 20.9081 13.1961C20.8388 13.1443 20.7572 13.1133 20.6721 13.1067C20.587 13.1 20.5017 13.1179 20.4258 13.1584C20.3498 13.1989 20.2861 13.2604 20.2416 13.3361C20.1971 13.4118 20.1735 13.4989 20.1735 13.5876L20.1736 19.6187C20.1732 21.062 19.7836 22.4762 19.0491 23.7007C18.3146 24.9253 17.2646 25.911 16.0185 26.5461C14.7723 27.1812 13.3799 27.4401 11.9993 27.2935C10.6187 27.1468 9.30538 26.6005 8.2084 25.7165C7.11142 24.8325 6.27479 23.6463 5.79352 22.2926C5.31225 20.9389 5.20563 19.472 5.48578 18.0584C5.76592 16.6449 6.4216 15.3414 7.37834 14.2959C8.33509 13.2505 9.55455 12.505 10.8982 12.1442L10.8982 16.2766C10.3341 16.6152 9.86569 17.1023 9.54 17.6889C9.21431 18.2755 9.04283 18.9409 9.04279 19.6183C9.04275 20.2956 9.21415 20.9611 9.53977 21.5477C9.86539 22.1343 10.3337 22.6215 10.8978 22.9602C11.4618 23.2989 12.1016 23.4772 12.7529 23.4773C13.4042 23.4773 14.0441 23.299 14.6081 22.9604C15.1722 22.6217 15.6406 22.1346 15.9663 21.5481C16.2919 20.9615 16.4634 20.296 16.4634 19.6187V4.66675H20.1889C20.3035 6.41413 21.0227 8.05922 22.2135 9.29767C23.4044 10.5361 24.9862 11.2841 26.6663 11.4033V15.2676Z" stroke="#424242" stroke-linecap="round" stroke-linejoin="round"/>
</svg>
