<svg width="24" height="24" viewBox="0 0 24 24" fill="none" xmlns="http://www.w3.org/2000/svg">
<path d="M15.3804 10.6154V6.46154C15.3804 5.54348 15.0243 4.66303 14.3904 4.01386C13.7565 3.3647 12.8968 3 12.0004 3C11.104 3 10.2443 3.3647 9.61038 4.01386C8.97651 4.66303 8.62041 5.54348 8.62041 6.46154V10.6154M18.8559 8.77569L19.9943 19.8526C20.0574 20.4665 19.5887 21 18.9857 21H5.01508C4.87286 21.0002 4.7322 20.9697 4.60223 20.9105C4.47226 20.8514 4.35589 20.7649 4.26069 20.6567C4.16549 20.5485 4.09358 20.421 4.04963 20.2824C4.00568 20.1439 3.99068 19.9975 4.00559 19.8526L5.14488 8.77569C5.17116 8.52052 5.28875 8.28434 5.47499 8.1127C5.66123 7.94106 5.90292 7.84611 6.15346 7.84615H17.8473C18.3665 7.84615 18.8018 8.24769 18.8559 8.77569ZM8.95841 10.6154C8.95841 10.7072 8.9228 10.7952 8.85941 10.8602C8.79602 10.9251 8.71005 10.9615 8.62041 10.9615C8.53076 10.9615 8.44479 10.9251 8.38141 10.8602C8.31802 10.7952 8.28241 10.7072 8.28241 10.6154C8.28241 10.5236 8.31802 10.4355 8.38141 10.3706C8.44479 10.3057 8.53076 10.2692 8.62041 10.2692C8.71005 10.2692 8.79602 10.3057 8.85941 10.3706C8.9228 10.4355 8.95841 10.5236 8.95841 10.6154ZM15.7184 10.6154C15.7184 10.7072 15.6828 10.7952 15.6194 10.8602C15.556 10.9251 15.47 10.9615 15.3804 10.9615C15.2907 10.9615 15.2048 10.9251 15.1414 10.8602C15.078 10.7952 15.0424 10.7072 15.0424 10.6154C15.0424 10.5236 15.078 10.4355 15.1414 10.3706C15.2048 10.3057 15.2907 10.2692 15.3804 10.2692C15.47 10.2692 15.556 10.3057 15.6194 10.3706C15.6828 10.4355 15.7184 10.5236 15.7184 10.6154Z" stroke="#292929" stroke-linecap="round" stroke-linejoin="round"/>
<circle cx="17" cy="17" r="7" fill="#9F1C35"/>
<path d="M17.7471 12.8516V20H16.8438V13.9795L15.0225 14.6436V13.8281L17.6055 12.8516H17.7471Z" fill="white"/>
</svg>
